<svg enable-background="new 0 0 512 511.998" viewBox="0 0 512 511.998" xmlns="http://www.w3.org/2000/svg" xmlns:xlink="http://www.w3.org/1999/xlink"><linearGradient id="SVGID_1_" gradientUnits="userSpaceOnUse" x1="256" x2="256" y1="505.999" y2="5.999"><stop offset="0" stop-color="#1c85e8"/><stop offset="1" stop-color="#ff896f"/></linearGradient><g id="_x30_8_Hot"><g><circle cx="256" cy="255.999" fill="url(#SVGID_1_)" r="250"/><g fill="#fff"><path d="m129.716 287.669c-25.742 15.856-39.463 45.513-34.958 75.555 4.932 32.889 32.572 59.438 65.716 63.127 45.922 5.102 83.789-30.915 83.789-74.707 0-26.286-13.431-50.223-35.924-64.033-2.301-1.411-3.73-4.066-3.73-6.927v-124.94c0-19.593-15.941-35.534-35.534-35.534s-35.534 15.941-35.534 35.534v124.946c0 2.851-1.465 5.525-3.825 6.979zm4.369 7.096c4.805-2.959 7.79-8.351 7.79-14.076v-124.946c0-14.998 12.201-27.201 27.201-27.201s27.201 12.202 27.201 27.201v124.94c0 5.737 2.952 11.112 7.702 14.03 20.01 12.282 31.953 33.564 31.953 56.93 0 38.7-33.44 71.001-74.531 66.426-29.456-3.28-54.017-26.865-58.398-56.082-4.013-26.733 8.191-53.12 31.082-67.222z"/><path d="m159.599 385.535c26.641 7.037 50.411-16.683 43.369-43.367-3.331-12.614-14.345-23.621-29.727-25.385v-149.005c0-2.301-1.865-4.167-4.167-4.167s-4.167 1.865-4.167 4.167v148.997c-7.738.91-14.988 4.331-20.68 10.023-18.833 18.837-10.699 51.86 15.372 58.737zm-9.476-52.843c5.111-5.112 11.885-7.843 18.994-7.843 12.916 0 22.944 8.654 25.791 19.445 5.421 20.546-12.755 38.579-33.18 33.185-19.666-5.191-26.015-30.38-11.605-44.787z"/><path d="m231.787 167.778c0 2.301 1.865 4.167 4.167 4.167h34.919c2.301 0 4.167-1.865 4.167-4.167 0-2.301-1.865-4.167-4.167-4.167h-34.919c-2.302 0-4.167 1.866-4.167 4.167z"/><path d="m235.657 202.129h34.919c2.301 0 4.167-1.865 4.167-4.167 0-2.301-1.865-4.167-4.167-4.167h-34.919c-2.301 0-4.167 1.865-4.167 4.167 0 2.301 1.866 4.167 4.167 4.167z"/><path d="m235.361 232.312h34.919c2.301 0 4.167-1.865 4.167-4.167s-1.865-4.167-4.167-4.167h-34.919c-2.301 0-4.167 1.865-4.167 4.167s1.865 4.167 4.167 4.167z"/><path d="m235.065 262.496h34.919c2.301 0 4.167-1.865 4.167-4.167 0-2.301-1.865-4.167-4.167-4.167h-34.919c-2.301 0-4.167 1.865-4.167 4.167s1.865 4.167 4.167 4.167z"/><path d="m314.511 149.249c0 21.776 17.715 39.492 39.492 39.492s39.492-17.716 39.492-39.492-17.715-39.492-39.492-39.492-39.492 17.717-39.492 39.492zm39.492-31.159c17.181 0 31.159 13.978 31.159 31.159s-13.978 31.159-31.159 31.159-31.159-13.978-31.159-31.159 13.978-31.159 31.159-31.159z"/><path d="m349.84 89.331v7.731c0 2.301 1.865 4.167 4.167 4.167 2.301 0 4.167-1.865 4.167-4.167v-7.731c0-2.301-1.865-4.167-4.167-4.167s-4.167 1.865-4.167 4.167z"/><path d="m349.84 201.429v7.731c0 2.301 1.865 4.167 4.167 4.167 2.301 0 4.167-1.865 4.167-4.167v-7.731c0-2.301-1.865-4.167-4.167-4.167s-4.167 1.865-4.167 4.167z"/><path d="m393.427 103.932-5.469 5.465c-1.628 1.628-1.628 4.266 0 5.894 1.63 1.63 4.266 1.624 5.892.002l5.469-5.465c1.628-1.628 1.628-4.266 0-5.894-1.627-1.626-4.264-1.628-5.892-.002z"/><path d="m314.586 194.557 5.469-5.467c1.628-1.626 1.628-4.264 0-5.892s-4.264-1.628-5.892 0l-5.469 5.467c-1.628 1.626-1.628 4.264 0 5.892s4.264 1.628 5.892 0z"/><path d="m413.922 153.411c2.301 0 4.167-1.865 4.167-4.167s-1.865-4.167-4.167-4.167h-7.731c-2.301 0-4.167 1.865-4.167 4.167s1.865 4.167 4.167 4.167z"/><path d="m289.925 149.244c0 2.301 1.865 4.167 4.167 4.167h7.731c2.301 0 4.167-1.865 4.167-4.167s-1.865-4.167-4.167-4.167h-7.731c-2.302.001-4.167 1.866-4.167 4.167z"/><path d="m399.319 188.665-5.469-5.467c-1.628-1.628-4.264-1.628-5.892 0s-1.628 4.266 0 5.892l5.469 5.467c1.628 1.628 4.264 1.628 5.892 0s1.628-4.266 0-5.892z"/><path d="m314.586 103.932c-1.631-1.626-4.268-1.624-5.892.002-1.628 1.628-1.628 4.266 0 5.894l5.469 5.465c1.625 1.622 4.261 1.629 5.892-.002 1.628-1.628 1.628-4.266 0-5.894z"/></g></g></g><g id="Layer_1"/></svg>