<svg enable-background="new 0 0 512 511.998" viewBox="0 0 512 511.998" xmlns="http://www.w3.org/2000/svg" xmlns:xlink="http://www.w3.org/1999/xlink"><linearGradient id="SVGID_1_" gradientUnits="userSpaceOnUse" x1="256" x2="256" y1="505.999" y2="5.999"><stop offset="0" stop-color="#1c85e8"/><stop offset="1" stop-color="#ff896f"/></linearGradient><g id="_x34_1_Sun_Rise"><g><circle cx="256" cy="255.999" fill="url(#SVGID_1_)" r="250"/><g fill="#fff"><path d="m187.1 376.61c2.301 0 4.167-1.865 4.167-4.167 0-35.693 29.038-64.733 64.731-64.733 2.301 0 4.167-1.865 4.167-4.167 0-2.301-1.865-4.167-4.167-4.167-40.288 0-73.065 32.777-73.065 73.066.001 2.303 1.866 4.168 4.167 4.168z"/><path d="m253.533 218.876v34.209c0 2.301 1.865 4.167 4.167 4.167 2.301 0 4.167-1.865 4.167-4.167v-34.209c0-2.301-1.865-4.167-4.167-4.167s-4.167 1.865-4.167 4.167z"/><path d="m103.889 360.028c-2.301 0-4.167 1.865-4.167 4.167s1.865 4.167 4.167 4.167h34.207c2.301 0 4.167-1.865 4.167-4.167s-1.865-4.167-4.167-4.167z"/><path d="m373.904 360.028c-2.301 0-4.167 1.865-4.167 4.167s1.865 4.167 4.167 4.167h34.207c2.301 0 4.167-1.865 4.167-4.167s-1.865-4.167-4.167-4.167z"/><path d="m145.495 255.679c-1.628 1.628-1.628 4.264 0 5.892l24.188 24.189c1.628 1.628 4.264 1.628 5.892 0s1.628-4.264 0-5.892l-24.188-24.189c-1.627-1.627-4.264-1.627-5.892 0z"/><path d="m342.317 292.457 24.188-24.189c1.628-1.628 1.628-4.264 0-5.892s-4.264-1.628-5.892 0l-24.188 24.189c-1.628 1.628-1.628 4.264 0 5.892 1.627 1.627 4.264 1.627 5.892 0z"/><path d="m422.667 418.495h-80.925c7.589-14.119 11.584-29.893 11.584-46.051 0-53.665-43.66-97.324-97.326-97.324s-97.324 43.659-97.324 97.324c0 16.161 3.995 31.932 11.583 46.051h-80.926c-2.301 0-4.167 1.865-4.167 4.167s1.865 4.167 4.167 4.167h333.333c2.301 0 4.167-1.865 4.167-4.167s-1.865-4.167-4.166-4.167zm-166.667-135.042c49.071 0 88.993 39.922 88.993 88.991 0 16.299-4.427 32.171-12.826 46.051h-152.334c-8.397-13.88-12.824-29.753-12.824-46.051 0-49.069 39.922-88.991 88.991-88.991z"/><path d="m285.751 119.078c1.628-1.628 1.628-4.264 0-5.892l-26.803-26.801c-1.592-1.594-4.252-1.645-5.896 0l-26.801 26.801c-1.628 1.628-1.628 4.264 0 5.892s4.264 1.628 5.892 0l19.691-19.691v69.746c0 2.301 1.865 4.167 4.167 4.167 2.301 0 4.167-1.865 4.167-4.167v-69.746l19.692 19.691c1.627 1.627 4.263 1.627 5.891 0z"/></g></g></g><g id="Layer_1"/></svg>