<svg enable-background="new 0 0 512 511.998" viewBox="0 0 512 511.998" xmlns="http://www.w3.org/2000/svg" xmlns:xlink="http://www.w3.org/1999/xlink"><linearGradient id="SVGID_1_" gradientUnits="userSpaceOnUse" x1="256" x2="256" y1="505.999" y2="5.999"><stop offset="0" stop-color="#1c85e8"/><stop offset="1" stop-color="#ff896f"/></linearGradient><g id="_x31_7_Winter"><g><circle cx="256" cy="255.999" fill="url(#SVGID_1_)" r="250"/><g fill="#fff"><path d="m419.079 196.875c0-26.261-18.211-48.442-43.674-53.716-9.208-28.663-43.272-40.86-68.621-24.341-13.154-20.872-36.102-33.652-60.973-33.652-27.515 0-52.49 15.648-64.593 40.161-45.047-10.532-88.298 23.856-88.298 70.148 0 39.727 32.321 72.048 72.049 72.048 5.322 0 10.669-.61 15.947-1.818 10.662 35.702 57.65 44.472 80.327 14.637 36.185 23.875 85.132 10.394 104.188-28.548 29.698-.688 53.648-25.059 53.648-54.919zm-54.933 46.599-.462-.024c-.259-.018-.516-.034-.776-.041-1.785-.046-3.232.936-3.916 2.479-16.467 37.216-63.312 49.928-96.297 25.291-.938-.7-2.129-.972-3.265-.757-1.147.216-2.15.903-2.767 1.895-18.059 29.027-62.127 20.654-68.626-12.503-.225-1.149-.921-2.15-1.921-2.757-.993-.604-2.198-.772-3.332-.443-5.871 1.709-11.865 2.575-17.814 2.575-35.133 0-63.716-28.582-63.716-63.714 0-41.691 39.923-72.956 81.143-61.239 2.008.575 4.131-.433 4.961-2.349 10.12-23.32 33.065-38.389 58.454-38.389 23.397 0 44.871 12.791 56.043 33.382.591 1.09 1.637 1.86 2.855 2.1 1.222.246 2.479-.073 3.439-.856 21.165-17.243 53.127-6.696 59.938 19.709.415 1.608 1.745 2.816 3.384 3.076 22.757 3.6 39.276 22.931 39.276 45.965-.001 25.696-20.906 46.6-46.601 46.6z"/><path d="m143.244 317.731c9.173 0 16.637-7.463 16.637-16.636s-7.464-16.637-16.637-16.637-16.636 7.464-16.636 16.637 7.463 16.636 16.636 16.636zm0-24.94c4.578 0 8.304 3.726 8.304 8.304s-3.726 8.302-8.304 8.302-8.302-3.724-8.302-8.302 3.724-8.304 8.302-8.304z"/><path d="m200.526 350.771c0-9.173-7.464-16.637-16.637-16.637s-16.636 7.464-16.636 16.637 7.463 16.636 16.636 16.636 16.637-7.463 16.637-16.636zm-24.939 0c0-4.578 3.724-8.304 8.302-8.304s8.304 3.726 8.304 8.304-3.726 8.302-8.304 8.302-8.302-3.724-8.302-8.302z"/><path d="m256 350.574c9.173 0 16.637-7.463 16.637-16.636s-7.464-16.637-16.637-16.637-16.636 7.464-16.636 16.637c0 9.174 7.463 16.636 16.636 16.636zm0-24.94c4.578 0 8.304 3.726 8.304 8.304s-3.726 8.302-8.304 8.302-8.302-3.724-8.302-8.302 3.724-8.304 8.302-8.304z"/><path d="m358.852 326.033c0-9.173-7.463-16.636-16.636-16.636s-16.637 7.463-16.637 16.636 7.464 16.637 16.637 16.637 16.636-7.464 16.636-16.637zm-24.94 0c0-4.578 3.726-8.302 8.304-8.302s8.302 3.724 8.302 8.302-3.724 8.304-8.302 8.304-8.304-3.725-8.304-8.304z"/><path d="m322.313 392.542c0-9.173-7.464-16.636-16.637-16.636s-16.636 7.463-16.636 16.636 7.463 16.637 16.636 16.637 16.637-7.464 16.637-16.637zm-24.939 0c0-4.578 3.724-8.302 8.302-8.302s8.304 3.724 8.304 8.302-3.726 8.304-8.304 8.304-8.302-3.726-8.302-8.304z"/><path d="m226.851 393.559c-9.173 0-16.636 7.464-16.636 16.637s7.463 16.636 16.636 16.636 16.637-7.463 16.637-16.636-7.464-16.637-16.637-16.637zm0 24.94c-4.578 0-8.302-3.724-8.302-8.302s3.724-8.304 8.302-8.304 8.304 3.726 8.304 8.304-3.725 8.302-8.304 8.302z"/><path d="m114.14 394.596c0 9.173 7.463 16.636 16.636 16.636s16.637-7.463 16.637-16.636-7.464-16.637-16.637-16.637-16.636 7.464-16.636 16.637zm16.635-8.304c4.578 0 8.304 3.726 8.304 8.304s-3.726 8.302-8.304 8.302-8.302-3.724-8.302-8.302 3.724-8.304 8.302-8.304z"/></g></g></g><g id="Layer_1"/></svg>