<svg enable-background="new 0 0 512 511.998" viewBox="0 0 512 511.998" xmlns="http://www.w3.org/2000/svg" xmlns:xlink="http://www.w3.org/1999/xlink"><linearGradient id="SVGID_1_" gradientUnits="userSpaceOnUse" x1="256" x2="256" y1="505.999" y2="5.999"><stop offset="0" stop-color="#1c85e8"/><stop offset="1" stop-color="#ff896f"/></linearGradient><g id="_x32_0_Sunset"><g><circle cx="256" cy="255.999" fill="url(#SVGID_1_)" r="250"/></g><g><circle cx="256" cy="255.999" fill="url(#SVGID_1_)" r="250"/><g fill="#fff"><path d="m187.1 274.723c2.301 0 4.167-1.865 4.167-4.167 0-35.695 29.036-64.735 64.73-64.735 2.301 0 4.167-1.865 4.167-4.167s-1.865-4.167-4.167-4.167c-40.286 0-73.063 32.778-73.063 73.068 0 2.303 1.865 4.168 4.166 4.168z"/><path d="m257.696 112.822c-2.301 0-4.167 1.865-4.167 4.167v34.207c0 2.301 1.865 4.167 4.167 4.167 2.301 0 4.167-1.865 4.167-4.167v-34.207c0-2.302-1.866-4.167-4.167-4.167z"/><path d="m103.887 258.139c-2.301 0-4.167 1.865-4.167 4.167s1.865 4.167 4.167 4.167h34.209c2.301 0 4.167-1.865 4.167-4.167s-1.865-4.167-4.167-4.167z"/><path d="m408.109 266.473c2.301 0 4.167-1.865 4.167-4.167s-1.865-4.167-4.167-4.167h-34.206c-2.301 0-4.167 1.865-4.167 4.167s1.865 4.167 4.167 4.167z"/><path d="m151.387 153.792c-1.628-1.628-4.264-1.628-5.892 0-1.628 1.626-1.628 4.264 0 5.892l24.186 24.188c1.628 1.628 4.264 1.628 5.892 0 1.628-1.626 1.628-4.264 0-5.892z"/><path d="m342.315 190.568 24.189-24.188c1.628-1.626 1.628-4.264 0-5.892s-4.264-1.628-5.892 0l-24.189 24.188c-1.628 1.626-1.628 4.264 0 5.892s4.264 1.627 5.892 0z"/><path d="m422.667 316.606h-80.927c7.589-14.118 11.584-29.891 11.584-46.051 0-53.665-43.659-97.324-97.324-97.324s-97.327 43.659-97.327 97.324c0 16.158 3.995 31.929 11.585 46.051h-80.925c-2.301 0-4.167 1.865-4.167 4.167s1.865 4.167 4.167 4.167h333.333c2.301 0 4.167-1.865 4.167-4.167s-1.865-4.167-4.166-4.167zm-166.667-135.042c49.069 0 88.991 39.922 88.991 88.991 0 16.3-4.427 32.173-12.826 46.051h-152.334c-8.398-13.883-12.826-29.756-12.826-46.051.001-49.069 39.923-88.991 88.995-88.991z"/><path d="m224.613 354.453h-110.263c-2.301 0-4.167 1.865-4.167 4.167s1.865 4.167 4.167 4.167h110.264c2.301 0 4.167-1.865 4.167-4.167s-1.866-4.167-4.168-4.167z"/><path d="m401.814 358.619c0-2.301-1.865-4.167-4.167-4.167h-69.808c-2.301 0-4.167 1.865-4.167 4.167s1.865 4.167 4.167 4.167h69.808c2.302 0 4.167-1.865 4.167-4.167z"/><path d="m288.174 362.786c2.301 0 4.167-1.865 4.167-4.167s-1.865-4.167-4.167-4.167h-37.119c-2.301 0-4.167 1.865-4.167 4.167s1.865 4.167 4.167 4.167z"/><path d="m169.418 390.843h-31.387c-2.301 0-4.167 1.865-4.167 4.167 0 2.301 1.865 4.167 4.167 4.167h31.387c2.301 0 4.167-1.865 4.167-4.167s-1.866-4.167-4.167-4.167z"/><path d="m342.582 390.843c-2.301 0-4.167 1.865-4.167 4.167 0 2.301 1.865 4.167 4.167 4.167h31.383c2.301 0 4.167-1.865 4.167-4.167 0-2.301-1.865-4.167-4.167-4.167z"/><path d="m195.001 395.009c0 2.301 1.865 4.167 4.167 4.167h114.264c2.301 0 4.167-1.865 4.167-4.167 0-2.301-1.865-4.167-4.167-4.167h-114.265c-2.301.001-4.166 1.866-4.166 4.167z"/></g></g></g><g id="Layer_1"/></svg>