<svg enable-background="new 0 0 512 511.998" viewBox="0 0 512 511.998" xmlns="http://www.w3.org/2000/svg" xmlns:xlink="http://www.w3.org/1999/xlink"><linearGradient id="SVGID_1_" gradientUnits="userSpaceOnUse" x1="256" x2="256" y1="505.999" y2="5.999"><stop offset="0" stop-color="#1c85e8"/><stop offset="1" stop-color="#ff896f"/></linearGradient><g id="_x32_9_Fog"><g><circle cx="256" cy="255.999" fill="url(#SVGID_1_)" r="250"/><g fill="#fff"><path d="m121.952 350.397h91.178c2.301 0 4.167-1.865 4.167-4.167 0-2.301-1.865-4.167-4.167-4.167h-91.178c-2.301 0-4.167 1.865-4.167 4.167 0 2.301 1.866 4.167 4.167 4.167z"/><path d="m265.689 350.397c2.301 0 4.167-1.865 4.167-4.167 0-2.301-1.865-4.167-4.167-4.167h-30.693c-2.301 0-4.167 1.865-4.167 4.167 0 2.301 1.865 4.167 4.167 4.167z"/><path d="m152.196 402.249c-2.301 0-4.167 1.865-4.167 4.167 0 2.301 1.865 4.167 4.167 4.167h30.69c2.301 0 4.167-1.865 4.167-4.167 0-2.301-1.865-4.167-4.167-4.167z"/><path d="m219.651 402.249c-2.301 0-4.167 1.865-4.167 4.167 0 2.301 1.865 4.167 4.167 4.167h30.693c2.301 0 4.167-1.865 4.167-4.167 0-2.301-1.865-4.167-4.167-4.167z"/><path d="m350.81 376.321c0-2.301-1.865-4.167-4.167-4.167h-154.554c-2.301 0-4.167 1.865-4.167 4.167 0 2.301 1.865 4.167 4.167 4.167h154.554c2.301 0 4.167-1.865 4.167-4.167z"/><path d="m394.215 313.587c0-2.301-1.865-4.167-4.167-4.167h-163.763c-2.301 0-4.167 1.865-4.167 4.167 0 2.301 1.865 4.167 4.167 4.167h163.763c2.301-.001 4.167-1.866 4.167-4.167z"/><path d="m184.729 263.47c14.28 23.832 46.16 28.605 66.826 11.175 28.653 19.513 67.872 10.905 85.804-18.916 3.359.664 6.696.999 9.958.999 28.978 0 52.555-23.577 52.555-52.555 0-26.104-18.91-47.969-44.408-51.917-6.559-17.243-22.959-28.649-41.618-28.649-8.473 0-16.81 2.461-23.932 6.999-10.954-18.122-30.368-29.189-51.742-29.189-26.797 0-50.046 17.373-57.819 42.705-2.581-.335-5.146-.505-7.666-.505-33.392 0-60.56 27.165-60.56 60.557.001 38.151 35.147 67.045 72.602 59.296zm-12.041-111.521c3.232 0 6.566.326 9.912.97 2.194.42 4.32-.957 4.84-3.122 5.645-23.581 26.507-40.049 50.732-40.049 19.824 0 37.695 11.051 46.637 28.841 1.204 2.394 4.305 3.02 6.338 1.374 6.514-5.251 14.362-8.024 22.699-8.024 15.905 0 29.792 10.192 34.554 25.361.498 1.589 1.891 2.725 3.545 2.897 22.572 2.35 39.593 21.253 39.593 43.975 0 24.385-19.837 44.222-44.222 44.222-3.574 0-7.282-.488-11.019-1.449-1.875-.469-3.812.381-4.717 2.08-15.123 28.404-52.037 36.686-77.796 16.95-.752-.576-1.647-.859-2.536-.859-1.061 0-2.122.407-2.926 1.201-17.344 17.121-46.55 12.692-57.747-9.499-.885-1.748-2.855-2.65-4.766-2.155-33.839 8.776-65.348-17.083-65.348-50.492 0-28.794 23.428-52.222 52.227-52.222z"/></g></g></g><g id="Layer_1"/></svg>