<svg id="Layer_1" enable-background="new 0 0 512 512" viewBox="0 0 512 512" xmlns="http://www.w3.org/2000/svg" xmlns:xlink="http://www.w3.org/1999/xlink"><linearGradient id="SVGID_1_" gradientUnits="userSpaceOnUse" x1="256.05" x2="256.05" y1="41" y2="471"><stop offset="0" stop-color="#f704fe"/><stop offset="1" stop-color="#24bce3"/></linearGradient><path d="m433.5 438.4h-355c-2.7 0-4.9-2.2-4.9-4.9v-355c0-2.7 2.2-4.9 4.9-4.9h355c2.7 0 4.9 2.2 4.9 4.9v355c0 2.7-2.2 4.9-4.9 4.9zm-350.2-9.8h345.3v-345.3h-345.3zm364.2 42.4h-383c-13 0-23.5-10.5-23.5-23.5v-383c0-13 10.5-23.5 23.5-23.5h383.1c12.9 0 23.5 10.5 23.5 23.5v383.1c-.1 12.9-10.6 23.4-23.6 23.4zm-383-420.2c-7.5 0-13.7 6.1-13.7 13.7v383.1c0 7.5 6.1 13.7 13.7 13.7h383.1c7.5 0 13.7-6.1 13.7-13.7v-383.1c0-7.5-6.1-13.7-13.7-13.7zm191.5 387.7c-2.7 0-4.9-2.2-4.9-4.9v-355.2c0-2.7 2.2-4.9 4.9-4.9s4.9 2.2 4.9 4.9v355.1c0 2.8-2.2 5-4.9 5zm177.6-177.6h-355.2c-2.7 0-4.9-2.2-4.9-4.9s2.2-4.9 4.9-4.9h355.1c2.7 0 4.9 2.2 4.9 4.9.1 2.7-2.1 4.9-4.8 4.9zm-126.2-60.8c-2.7 0-4.9-2.2-4.9-4.9v-6.1c0-2.7 2.2-4.9 4.9-4.9s4.9 2.2 4.9 4.9v6.1c0 2.7-2.2 4.9-4.9 4.9zm24.9 0c-2.7 0-4.9-2.2-4.9-4.9v-6.1c0-2.7 2.2-4.9 4.9-4.9s4.9 2.2 4.9 4.9v6.1c0 2.7-2.2 4.9-4.9 4.9zm25 0c-2.7 0-4.9-2.2-4.9-4.9v-6.1c0-2.7 2.2-4.9 4.9-4.9s4.9 2.2 4.9 4.9v6.1c0 2.7-2.2 4.9-4.9 4.9zm25 0c-2.7 0-4.9-2.2-4.9-4.9v-6.1c0-2.7 2.2-4.9 4.9-4.9s4.9 2.2 4.9 4.9v6.1c0 2.7-2.2 4.9-4.9 4.9zm-74.9 25c-2.7 0-4.9-2.2-4.9-4.9v-6.1c0-2.7 2.2-4.9 4.9-4.9s4.9 2.2 4.9 4.9v6.1c0 2.7-2.2 4.9-4.9 4.9zm24.9 0c-2.7 0-4.9-2.2-4.9-4.9v-6.1c0-2.7 2.2-4.9 4.9-4.9s4.9 2.2 4.9 4.9v6.1c0 2.7-2.2 4.9-4.9 4.9zm25 0c-2.7 0-4.9-2.2-4.9-4.9v-6.1c0-2.7 2.2-4.9 4.9-4.9s4.9 2.2 4.9 4.9v6.1c0 2.7-2.2 4.9-4.9 4.9zm25 0c-2.7 0-4.9-2.2-4.9-4.9v-6.1c0-2.7 2.2-4.9 4.9-4.9s4.9 2.2 4.9 4.9v6.1c0 2.7-2.2 4.9-4.9 4.9zm-15.2-55.5h-44.7c-11 0-20-9-20-20 0-10.8 8.6-19.6 19.3-20 1.7-11.4 11.5-20.1 23.4-20.1s21.7 8.8 23.4 20.2c10.4.7 18.6 9.4 18.6 20 .1 10.9-8.9 19.9-20 19.9zm-44.6-30.3c-5.6 0-10.3 4.7-10.3 10.3s4.7 10.3 10.3 10.3h44.7c5.6 0 10.3-4.7 10.3-10.3s-4.7-10.3-10.3-10.3c-.7 0-1.5.1-2.4.3-1.6.3-3.2-.2-4.3-1.3s-1.7-2.7-1.4-4.3c0-.2 0-.7 0-1 0-7.7-6.2-13.9-13.9-13.9s-13.9 6.2-13.9 13.9v1.2c.3 1.7-.3 3.4-1.6 4.5s-3 1.5-4.6 1c-.9-.3-1.8-.4-2.6-.4zm-155.3 62.6c-19.1 0-34.7-15.6-34.7-34.7s15.6-34.7 34.7-34.7 34.7 15.6 34.7 34.7-15.6 34.7-34.7 34.7zm0-59.7c-13.7 0-24.9 11.2-24.9 24.9s11.2 24.9 24.9 24.9 24.9-11.2 24.9-24.9-11.2-24.9-24.9-24.9zm0-18.9c-2.7 0-4.9-2.2-4.9-4.9v-4.2c0-2.7 2.2-4.9 4.9-4.9s4.9 2.2 4.9 4.9v4.2c0 2.7-2.2 4.9-4.9 4.9zm-34.5 14.4c-1.3 0-2.6-.5-3.5-1.5l-2.9-3c-1.9-1.9-1.8-5 .1-6.9s5-1.8 6.9.1l2.9 3c1.9 1.9 1.8 5-.1 6.9-1 .9-2.2 1.4-3.4 1.4zm-14.3 34.4h-4.2c-2.7 0-4.9-2.2-4.9-4.9s2.2-4.9 4.9-4.9h4.2c2.7 0 4.9 2.2 4.9 4.9s-2.2 4.9-4.9 4.9zm11.3 37.5c-1.2 0-2.4-.5-3.4-1.4-1.9-1.9-2-5-.1-6.9l2.9-3c1.9-1.9 5-2 6.9-.1s2 5 .1 6.9l-2.9 3c-.9 1-2.2 1.5-3.5 1.5zm37.5 15.5c-2.7 0-4.9-2.2-4.9-4.9v-4.2c0-2.7 2.2-4.9 4.9-4.9s4.9 2.2 4.9 4.9v4.2c0 2.7-2.2 4.9-4.9 4.9zm37.5-15.5c-1.3 0-2.5-.5-3.5-1.4l-3-3c-1.9-1.9-1.9-5 0-6.9s5-1.9 6.9 0l3 3c1.9 1.9 1.9 5 0 6.9-.9.9-2.2 1.4-3.4 1.4zm15.5-37.5h-4.3c-2.7 0-4.9-2.2-4.9-4.9s2.2-4.9 4.9-4.9h4.3c2.7 0 4.9 2.2 4.9 4.9s-2.2 4.9-4.9 4.9zm-18.5-34.4c-1.3 0-2.5-.5-3.5-1.4-1.9-1.9-1.9-5 0-6.9l3-3c1.9-1.9 5-1.9 6.9 0s1.9 5 0 6.9l-3 3c-.9.9-2.2 1.4-3.4 1.4zm143 199.2c-2.7 0-4.9-2.2-4.9-4.9v-37.9c0-2.7 2.2-4.9 4.9-4.9s4.9 2.2 4.9 4.9v37.9c0 2.7-2.2 4.9-4.9 4.9zm0-17.3c-1.3 0-2.6-.5-3.5-1.5l-13.6-13.8c-1.9-1.9-1.9-5 0-6.9s5-1.9 6.9 0l10.1 10.3 10.2-10.3c1.9-1.9 5-1.9 6.9 0s1.9 5 0 6.9l-13.7 13.8c-.7 1-2 1.5-3.3 1.5zm50.7 29.9h-37.8c-2.7 0-4.9-2.2-4.9-4.9s2.2-4.9 4.9-4.9h37.8c2.7 0 4.9 2.2 4.9 4.9s-2.2 4.9-4.9 4.9zm-6.8 13.8c-1.3 0-2.5-.5-3.5-1.4l-13.8-13.8c-.9-.9-1.4-2.2-1.4-3.5s.5-2.5 1.5-3.5l13.8-13.6c1.9-1.9 5-1.9 6.9 0s1.9 5 0 6.9l-10.3 10.1 10.3 10.3c1.9 1.9 1.9 5 0 6.9-1 1.1-2.2 1.6-3.5 1.6zm-43.8 36.9c-2.7 0-4.9-2.2-4.9-4.9v-37.9c0-2.7 2.2-4.9 4.9-4.9s4.9 2.2 4.9 4.9v37.9c0 2.8-2.2 4.9-4.9 4.9zm-13.6-6.8c-1.3 0-2.5-.5-3.5-1.4-1.9-1.9-1.9-5 0-6.9l13.8-13.8c.9-.9 2.2-1.4 3.5-1.4 1.3 0 2.6.5 3.5 1.5l13.5 13.8c1.9 1.9 1.9 5-.1 6.9-1.9 1.9-5 1.9-6.9-.1l-10-10.2-10.4 10.2c-.9.9-2.2 1.4-3.4 1.4zm.8-43.7h-37.8c-2.7 0-4.9-2.2-4.9-4.9s2.2-4.9 4.9-4.9h37.8c2.7 0 4.9 2.2 4.9 4.9s-2.2 4.9-4.9 4.9zm-30.9 13.6c-1.3 0-2.5-.5-3.5-1.4-1.9-1.9-1.9-5 0-6.9l10.2-10.1-10.2-10.3c-1.9-1.9-1.9-5 0-6.9s5-1.9 6.9 0l13.7 13.8c.9.9 1.4 2.2 1.4 3.5s-.5 2.5-1.4 3.5l-13.7 13.6c-1 .7-2.2 1.2-3.4 1.2zm43.7-1c-9.7 0-17.6-7.9-17.6-17.6s7.9-17.6 17.6-17.6 17.6 7.9 17.6 17.6-7.9 17.6-17.6 17.6zm0-25.4c-4.3 0-7.8 3.5-7.8 7.8s3.5 7.8 7.8 7.8 7.8-3.5 7.8-7.8-3.5-7.8-7.8-7.8zm-150.9 50.7c-.4 0-.7 0-1.1-.1l-13-2.9c-35.7-7-59.1-41.7-52.2-77.4l2.6-13.6c.5-2.6 3.1-4.4 5.7-3.9l13.6 2.6c35.7 7 59.2 41.7 52.2 77.5v.1l-3.1 13.9c-.5 2.3-2.5 3.8-4.7 3.8zm-55-87.4-1.7 8.8c-5.9 30.5 14.1 60.1 44.5 66h.1l8.3 1.9 2-9c5.9-30.4-14.1-60-44.5-65.9zm64.3 99.8c-1.4 0-2.9-.6-3.8-1.8-1.1-1.4-2.2-2.9-3.4-4.5-1.7-2.3-3.7-5-6.1-7.8-15.2-18-26.5-38.7-29.6-45.2-1.2-2.4-.1-5.4 2.3-6.5 2.4-1.2 5.4-.1 6.5 2.3 2.9 6.2 13.8 25.9 28.3 43.1 2.6 3.1 4.7 5.9 6.5 8.3 1.1 1.5 2.2 2.9 3.2 4.2 1.7 2.1 1.3 5.2-.8 6.9-.9.6-2 1-3.1 1z" fill="url(#SVGID_1_)"/></svg>