<svg enable-background="new 0 0 512 511.998" viewBox="0 0 512 511.998" xmlns="http://www.w3.org/2000/svg" xmlns:xlink="http://www.w3.org/1999/xlink"><linearGradient id="SVGID_1_" gradientUnits="userSpaceOnUse" x1="256" x2="256" y1="505.999" y2="5.999"><stop offset="0" stop-color="#1c85e8"/><stop offset="1" stop-color="#ff896f"/></linearGradient><g id="_x32_5_Night"><g><circle cx="256" cy="255.999" fill="url(#SVGID_1_)" r="250"/><g fill="#fff"><path d="m245.943 112.677c-1.826-.288-3.672.667-4.453 2.373-.781 1.702-.332 3.717 1.1 4.925 37.414 31.551 42.161 87.387 10.602 124.806-31.541 37.402-87.382 42.16-124.801 10.604-1.432-1.209-3.496-1.313-5.039-.252-1.546 1.058-2.197 3.018-1.589 4.79 15.039 43.813 55.956 74.519 103.503 75.561-2.474 5.66-3.867 11.897-3.867 18.459 0 29.027 26.611 51.002 55.088 45.396 7.694 21.79 36.324 27.105 51.227 9.333 22.862 14.101 52.956 5.621 65.254-18.255 18.828-.938 33.861-16.549 33.861-35.605 0-16.735-11.396-30.916-27.454-34.665-6.275-17.661-27.058-25.285-43.284-15.894-7.762-11.442-20.237-18.752-34-20.034 44.212-68.198 2.811-158.711-76.148-171.542zm105.215 199.484c.592 1.09 1.637 1.86 2.855 2.1 1.204.241 2.474-.073 3.438-.856 12.239-9.967 30.704-3.866 34.642 11.392.413 1.606 1.742 2.814 3.382 3.075 13.34 2.109 23.021 13.441 23.021 26.94 0 15.055-12.243 27.306-27.477 27.305-.007 0-.013 0-.02 0l-.534-.029c-1.771-.098-3.249.931-3.932 2.479-9.802 22.156-37.684 29.724-57.321 15.057-.938-.698-2.116-.972-3.265-.757-1.146.216-2.152.903-2.767 1.895-10.454 16.801-35.906 11.907-39.661-7.223-.225-1.147-.921-2.148-1.921-2.757-.975-.591-2.17-.776-3.333-.441-24.488 7.125-48.532-11.387-48.532-36.395 0-24.826 23.765-43.425 48.304-36.455 2.021.576 4.131-.433 4.961-2.349 6.025-13.882 19.684-22.853 34.798-22.853 13.928-.003 26.711 7.613 33.362 19.872zm-39.258-27.818c-14.87 1.907-27.97 10.929-35.016 24.289-18.042-3.721-36.208 3.682-46.786 18.41-40.948.984-77.083-21.768-94.77-56.429 39.497 24.001 92.619 17.031 124.235-20.461 31.626-37.497 29.523-91.041-.794-125.908 67.964 21.187 94.74 102.903 53.131 160.099z"/><path d="m159.882 195.816c-5.993 2.674-10.029 8.667-10.029 15.495 0 9.351 7.607 16.958 16.96 16.958 2.301 0 4.167-1.865 4.167-4.167 0-2.301-1.865-4.167-4.167-4.167-4.756 0-8.626-3.869-8.626-8.625 0-4.196 2.992-7.772 7.113-8.503 1.139-.203 2.142-.869 2.77-1.841s.824-2.16.54-3.281c-2.612-10.381 5.32-20.801 16.302-20.801 7.66 0 14.346 5.161 16.257 12.552.537 2.083 2.575 3.426 4.694 3.088 4.593 0 8.428 3.42 8.926 7.956.146 1.361.954 2.56 2.158 3.213 7.88 4.26 4.84 16.242-4.098 16.242-2.301 0-4.167 1.865-4.167 4.167 0 2.301 1.865 4.167 4.167 4.167 16.465 0 23.264-21.206 9.867-30.78-1.631-6.943-7.389-12.161-14.456-13.135-3.757-9.442-12.952-15.802-23.346-15.802-14.601 0-26.262 12.505-25.032 27.264z"/><path d="m229.618 110.789c-.488-1.509-1.794-2.607-3.363-2.835l-12.34-1.795-5.518-11.182c-.703-1.423-2.152-2.323-3.737-2.323s-3.034.9-3.737 2.323l-5.521 11.182-12.34 1.795c-1.569.228-2.874 1.326-3.363 2.835-.492 1.509-.081 3.164 1.055 4.271l8.929 8.704-2.109 12.29c-.267 1.564.378 3.143 1.66 4.076 1.277.927 2.972 1.059 4.388.317l11.038-5.804 11.035 5.804c1.403.734 3.099.614 4.388-.317 1.283-.933 1.927-2.511 1.66-4.076l-2.109-12.29 8.929-8.704c1.136-1.107 1.546-2.763 1.055-4.271zm-17.367 8.536c-2.45 2.385-.577 5.273-.15 9.816l-5.501-2.894c-3.028-1.587-5.18 1.076-9.385 2.896l1.051-6.13c.575-3.363-2.634-4.605-5.651-8.029l6.152-.895c3.378-.49 3.561-3.919 5.892-7.855l2.751 5.576c1.515 3.059 4.812 2.17 9.29 3.174z"/><path d="m106.597 170.875-5.518 11.182-12.34 1.795c-1.569.228-2.874 1.326-3.363 2.835-.492 1.509-.081 3.164 1.055 4.271l8.929 8.704-2.113 12.29c-.267 1.563.374 3.143 1.66 4.076 1.277.927 2.972 1.059 4.388.317l11.038-5.804 11.035 5.804c1.406.737 3.099.615 4.388-.317 1.283-.933 1.927-2.511 1.66-4.076l-2.109-12.29 8.929-8.704c1.136-1.107 1.546-2.762 1.055-4.271-.488-1.509-1.794-2.607-3.363-2.835l-12.34-1.795-5.518-11.182c-.703-1.423-2.152-2.323-3.737-2.323s-3.033.9-3.736 2.323zm3.737 11.26c2.284 3.86 2.507 7.363 5.889 7.853l6.152.895-4.45 4.341c-2.45 2.385-.577 5.273-.15 9.816l-5.501-2.894c-.609-.319-1.273-.479-1.94-.479-1.715 0-2.354.839-7.445 3.372l1.055-6.128c.575-3.363-2.635-4.605-5.651-8.029l6.152-.895c1.357-.197 2.529-1.05 3.138-2.279z"/></g></g></g><g id="Layer_1"/></svg>