<svg enable-background="new 0 0 512 511.998" viewBox="0 0 512 511.998" xmlns="http://www.w3.org/2000/svg" xmlns:xlink="http://www.w3.org/1999/xlink"><linearGradient id="SVGID_1_" gradientUnits="userSpaceOnUse" x1="256" x2="256" y1="505.999" y2="5.999"><stop offset="0" stop-color="#1c85e8"/><stop offset="1" stop-color="#ff896f"/></linearGradient><g id="_x30_2_Cloudy_Day"><g><circle cx="256" cy="255.999" fill="url(#SVGID_1_)" r="250"/><g fill="#fff"><path d="m105.812 170.514c2.301 0 4.167-1.865 4.167-4.167 0-2.301-1.865-4.167-4.167-4.167-15.001 0-16.875-21.873-2.161-24.494 1.138-.202 2.142-.869 2.769-1.841.628-.972.824-2.16.54-3.281-3.568-14.113 7.234-28.332 22.204-28.332 10.43 0 19.533 7.03 22.137 17.096.539 2.088 2.738 3.426 4.886 3.076 6.541 0 12.007 4.875 12.713 11.34.148 1.361.955 2.56 2.16 3.213 11.26 6.093 6.914 23.223-5.864 23.223-2.301 0-4.167 1.865-4.167 4.167 0 2.301 1.865 4.167 4.167 4.167 20.371 0 28.346-26.396 11.652-37.775-1.89-8.921-9.344-15.607-18.439-16.551-4.492-12.09-16.097-20.288-29.245-20.288-18.51 0-33.05 16.111-30.999 34.727-20.985 8.333-15.125 39.887 7.647 39.887z"/><path d="m168.182 392.293c2.301 0 4.167-1.865 4.167-4.167s-1.865-4.167-4.167-4.167c-8.997 0-10.122-13.12-1.297-14.692 1.139-.202 2.144-.869 2.772-1.841.627-.972.822-2.161.539-3.283-2.298-9.057 4.633-18.306 14.352-18.306 6.743 0 12.627 4.544 14.308 11.05.542 2.096 2.518 3.451 4.634 3.089 3.947 0 7.244 2.939 7.671 6.839.15 1.359.955 2.559 2.16 3.21 6.755 3.659 4.151 13.934-3.517 13.934-2.301 0-4.167 1.865-4.167 4.167s1.865 4.167 4.167 4.167c15.094 0 21.613-19.466 9.276-28.465-1.54-6.289-6.743-11.025-13.141-12-3.509-8.568-11.908-14.323-21.39-14.323-13.304 0-24.001 11.303-23.048 24.801-15.184 7.105-10.027 29.987 6.681 29.987z"/><path d="m158.124 220.643c-18.298 2.062-32.563 17.632-32.563 36.47 0 27.032 28.331 44.698 52.51 33.125 6.54 18.369 23.82 30.775 43.752 30.775 17.588 0 33.465-9.81 41.388-25.278 14.989 3.221 30.368-.332 42.337-9.219 26.239 18.486 62.975-.202 62.975-32.674 0-15.229-8.822-29.155-22.323-35.824 7.382-26.337-16.525-50.9-42.936-44.445-5.742-19.593-23.812-33.379-44.603-33.379-25.173 0-45.737 20.099-46.492 45.091-25.311-9.97-53.012 8.18-54.045 35.358zm56.357-24.869c1.367.869 3.11.868 4.478-.002 1.364-.869 2.103-2.451 1.891-4.056-3.069-23.365 15.208-43.19 37.811-43.19 18.354 0 34.124 13.088 37.498 31.12.228 1.217.985 2.271 2.067 2.873 1.086.605 2.381.695 3.532.246 22.483-8.7 44.423 13.76 35.399 35.978-.425 1.043-.409 2.214.044 3.245.454 1.032 1.305 1.836 2.362 2.228 12.337 4.59 20.627 16.496 20.627 29.624 0 27.021-31.645 41.342-51.997 24.201-1.556-1.31-3.831-1.309-5.378.008-11.089 9.398-26.268 12.936-40.793 8.804-2.02-.57-4.167.454-4.98 2.397-5.968 14.232-19.793 23.428-35.22 23.428-17.889 0-33.177-12.179-37.178-29.617-.308-1.343-1.26-2.446-2.542-2.949-1.243-.487-2.698-.36-3.869.439-18.682 12.758-44.339-.629-44.339-23.439 0-15.64 12.721-28.363 28.48-28.363h.01c1.154 0 2.256-.479 3.044-1.32 1.598-1.711 1.001-3.379 1.001-5.262-.001-24.618 27.285-39.616 48.052-26.393z"/><path d="m311.35 329.853c-22.127-4.091-42.627 13.039-42.627 35.55 0 22.295 20.147 39.425 42.214 35.628 6.44 16.328 27.944 20.365 39.769 7.244 17.559 10.277 40.322 3.884 49.998-14.196 14.565-1.021 26.104-13.197 26.104-28.018 0-13.003-8.73-24.049-21.105-27.184-5.096-13.367-20.732-19.2-33.337-12.542-6.742-9.419-17.643-15.111-29.401-15.111-13.23.001-25.287 7.208-31.615 18.629zm56.084 4.282c.591 1.09 1.637 1.86 2.855 2.101 1.222.241 2.48-.073 3.439-.859 8.721-7.102 21.902-2.774 24.715 8.13.415 1.606 1.745 2.814 3.384 3.075 9.647 1.525 16.647 9.718 16.647 19.481 0 10.889-8.856 19.749-19.79 19.748-.003 0-.007 0-.01 0-.068-.005-.423-.023-.492-.024-1.81-.107-3.224.939-3.906 2.479-7.173 16.213-27.605 21.823-42.038 11.043-.936-.7-2.131-.97-3.265-.757-1.146.216-2.15.903-2.765 1.893-2.855 4.587-7.764 7.324-13.13 7.324-7.376 0-13.757-5.246-15.174-12.474-.225-1.149-.923-2.15-1.922-2.757-.971-.592-2.172-.778-3.332-.443-17.961 5.228-35.594-8.349-35.594-26.691 0-18.211 17.432-31.849 35.428-26.733 2.007.568 4.128-.436 4.959-2.35 4.419-10.182 14.437-16.761 25.521-16.761 10.215-.001 19.592 5.585 24.47 14.575z"/></g></g></g><g id="Layer_1"/></svg>