<svg enable-background="new 0 0 512 511.998" viewBox="0 0 512 511.998" xmlns="http://www.w3.org/2000/svg" xmlns:xlink="http://www.w3.org/1999/xlink"><linearGradient id="SVGID_1_" gradientUnits="userSpaceOnUse" x1="256" x2="256" y1="505.999" y2="5.999"><stop offset="0" stop-color="#1c85e8"/><stop offset="1" stop-color="#ff896f"/></linearGradient><g id="_x30_3_Rain"><g><circle cx="256" cy="255.999" fill="url(#SVGID_1_)" r="250"/><g fill="#fff"><path d="m179.022 270.204c5.833 19.696 24.098 33.574 44.987 33.574 14.824 0 28.49-6.868 37.347-18.573 12.096 8.006 26.029 12.217 40.55 12.217 28.249 0 53.981-16.187 66.328-41.473 30.449-.669 55.016-25.646 55.016-56.253 0-26.921-18.682-49.653-44.798-55.031-6.182-19.329-24.17-32.607-44.652-32.607-9.141 0-18.109 2.703-25.716 7.686-13.47-21.445-37.015-34.578-62.542-34.578-28.226 0-53.841 16.069-66.23 41.232-46.491-10.916-90.563 24.7-90.563 71.864 0 47.14 43.966 82.599 90.273 71.942zm1.472-134.894c2.021.568 4.131-.435 4.961-2.35 10.404-23.971 33.988-39.461 60.088-39.461 24.053 0 46.13 13.149 57.611 34.316 1.264 2.323 4.293 2.868 6.292 1.243 6.862-5.589 15.511-8.667 24.355-8.667 17.585 0 32.936 11.904 37.334 28.95.413 1.608 1.742 2.816 3.382 3.076 23.408 3.703 40.4 23.587 40.4 47.279 0 26.431-21.504 47.933-47.933 47.933-1.763 0-3.944-.398-5.192 2.41-10.495 23.722-34.001 39.049-59.886 39.049-14.15 0-27.669-4.513-39.102-13.05-.938-.698-2.122-.968-3.265-.757-1.146.216-2.148.903-2.767 1.895-7.116 11.439-19.365 18.268-32.764 18.268-18.405 0-34.326-13.096-37.865-31.136-.225-1.149-.921-2.148-1.921-2.757-.99-.602-2.187-.773-3.333-.443-42.286 12.31-83.809-19.663-83.809-62.848.002-42.861 41.04-74.992 83.414-62.95z"/><path d="m140.832 346.279 15.267-22.205c1.302-1.896.824-4.489-1.074-5.794-1.888-1.299-4.492-.824-5.794 1.074l-15.267 22.205c-1.302 1.896-.824 4.489 1.074 5.794 1.896 1.304 4.493.82 5.794-1.074z"/><path d="m218.476 330.455-15.264 22.205c-1.302 1.896-.824 4.491 1.074 5.794.719.495 1.543.732 2.357.732 1.325 0 2.63-.632 3.438-1.807l15.264-22.205c1.302-1.896.824-4.491-1.074-5.794-1.892-1.301-4.493-.823-5.795 1.075z"/><path d="m169.312 413.924 15.264-22.205c1.302-1.896.824-4.491-1.074-5.794-1.891-1.302-4.489-.82-5.794 1.074l-15.264 22.205c-1.302 1.896-.824 4.491 1.074 5.794 1.896 1.304 4.493.82 5.794-1.074z"/><path d="m280.341 341.559-15.264 22.205c-1.302 1.896-.824 4.491 1.074 5.794 1.896 1.304 4.493.82 5.794-1.074l15.264-22.205c1.302-1.896.824-4.491-1.074-5.794-1.891-1.301-4.492-.826-5.794 1.074z"/><path d="m239.573 398.1-15.264 22.205c-1.302 1.896-.824 4.491 1.074 5.794 1.896 1.304 4.493.82 5.794-1.074l15.264-22.205c1.302-1.896.824-4.491-1.074-5.794-1.888-1.301-4.492-.822-5.794 1.074z"/><path d="m348.039 341.559-15.267 22.205c-1.302 1.896-.824 4.489 1.074 5.794 1.896 1.304 4.493.82 5.794-1.074l15.267-22.205c1.302-1.896.824-4.489-1.074-5.794-1.891-1.301-4.488-.826-5.794 1.074z"/><path d="m307.271 398.1-15.267 22.205c-1.302 1.896-.824 4.489 1.074 5.794 1.896 1.304 4.493.82 5.794-1.074l15.267-22.205c1.302-1.896.824-4.489-1.074-5.794-1.891-1.301-4.492-.822-5.794 1.074z"/></g></g></g><g id="Layer_1"/></svg>