<svg enable-background="new 0 0 512 511.998" viewBox="0 0 512 511.998" xmlns="http://www.w3.org/2000/svg" xmlns:xlink="http://www.w3.org/1999/xlink"><linearGradient id="SVGID_1_" gradientUnits="userSpaceOnUse" x1="256" x2="256" y1="505.999" y2="5.999"><stop offset="0" stop-color="#1c85e8"/><stop offset="1" stop-color="#ff896f"/></linearGradient><g id="_x31_1_Wind"><g><circle cx="256" cy="255.999" fill="url(#SVGID_1_)" r="250"/><g fill="#fff"><path d="m346.625 321.175c-11.447-11.874-32.384-5.189-34.769 12.305-.309 2.28 1.287 4.38 3.568 4.691 2.272.313 4.38-1.289 4.691-3.568 1.427-10.483 13.835-14.572 20.509-7.645 7.011 7.273 1.292 19.616-9.993 19.616h-106.807c-2.301 0-4.167 1.865-4.167 4.167 0 2.301 1.865 4.167 4.167 4.167h106.807c18.784-.001 27.985-21.286 15.994-33.733z"/><path d="m302.297 301.488h-76.934c-2.301 0-4.167 1.865-4.167 4.167s1.865 4.167 4.167 4.167h76.934c7.954 0 15.908-4.762 19.344-11.582 3.581-7.108 2.17-16.423-3.351-22.148-11.474-11.912-32.397-5.137-34.767 12.303-.309 2.28 1.287 4.38 3.568 4.691 2.269.296 4.38-1.289 4.691-3.568 1.423-10.486 13.837-14.568 20.509-7.643 6.984 7.243 1.342 19.613-9.994 19.613z"/><path d="m192.94 309.821h12.326c2.301 0 4.167-1.865 4.167-4.167s-1.865-4.167-4.167-4.167h-12.326c-2.301 0-4.167 1.865-4.167 4.167s1.866 4.167 4.167 4.167z"/><path d="m192.94 330.646h67.15c2.301 0 4.167-1.865 4.167-4.167s-1.865-4.167-4.167-4.167h-67.15c-2.301 0-4.167 1.865-4.167 4.167s1.866 4.167 4.167 4.167z"/><path d="m283.891 330.646c2.301 0 4.167-1.865 4.167-4.167s-1.865-4.167-4.167-4.167h-8.499c-2.301 0-4.167 1.865-4.167 4.167s1.865 4.167 4.167 4.167z"/><path d="m292.834 407.455c-.311-2.28-2.409-3.872-4.691-3.568-2.28.311-3.877 2.41-3.568 4.691 2.402 17.672 23.469 24.025 34.767 12.303 11.913-12.355 2.943-33.73-15.993-33.73h-76.934c-2.301 0-4.167 1.865-4.167 4.167 0 2.301 1.865 4.167 4.167 4.167h76.934c11.235 0 17.029 12.313 9.993 19.614-6.68 6.938-19.086 2.83-20.508-7.644z"/><path d="m193.993 387.15c-2.301 0-4.167 1.865-4.167 4.167 0 2.301 1.865 4.167 4.167 4.167h12.324c2.301 0 4.167-1.865 4.167-4.167 0-2.301-1.865-4.167-4.167-4.167z"/><path d="m265.31 370.492c0-2.301-1.865-4.167-4.167-4.167h-67.15c-2.301 0-4.167 1.865-4.167 4.167 0 2.301 1.865 4.167 4.167 4.167h67.15c2.302-.001 4.167-1.866 4.167-4.167z"/><path d="m284.944 374.658c2.301 0 4.167-1.865 4.167-4.167 0-2.301-1.865-4.167-4.167-4.167h-8.499c-2.301 0-4.167 1.865-4.167 4.167 0 2.301 1.865 4.167 4.167 4.167z"/><path d="m192.94 354.907h14.308c2.301 0 4.167-1.865 4.167-4.167 0-2.301-1.865-4.167-4.167-4.167h-14.308c-2.301 0-4.167 1.865-4.167 4.167s1.866 4.167 4.167 4.167z"/><path d="m355.176 135.85c-10.152-26.663-41.941-36.504-65.358-21.589-10.928-18.065-30.283-29.1-51.592-29.1-26.719 0-49.899 17.321-57.653 42.576-36.002-4.668-68.024 23.585-68.024 59.886 0 37.978 34.96 66.861 72.389 59.131 14.207 23.705 45.982 28.556 66.628 11.144 10.036 6.833 21.654 10.426 33.813 10.426 21.286 0 40.827-11.141 51.742-29.284 32.226 6.336 62.329-18.551 62.329-51.418.001-26.027-18.85-47.83-44.274-51.772zm-19.116 94.409c-1.865-.485-3.812.379-4.715 2.077-9.082 17.059-26.696 27.656-45.965 27.656-11.476 0-22.397-3.721-31.584-10.76-.752-.576-1.644-.859-2.533-.859-1.064 0-2.122.405-2.928 1.201-17.291 17.067-46.388 12.647-57.554-9.469-.882-1.748-2.866-2.638-4.766-2.155-33.726 8.748-65.133-17.028-65.133-50.326 0-32.281 29.41-57.333 61.937-51.087 2.184.41 4.318-.955 4.839-3.122 5.627-23.504 26.423-39.92 50.568-39.92 19.761 0 37.573 11.016 46.489 28.75.565 1.125 1.61 1.934 2.84 2.201 1.234.272 2.516-.037 3.498-.828 19.648-15.839 49.378-7.172 57.059 17.282.498 1.585 1.89 2.725 3.543 2.896 22.497 2.34 39.461 21.183 39.461 43.83.001 28.23-26.606 49.938-55.056 42.633z"/></g></g></g><g id="Layer_1"/></svg>