<svg enable-background="new 0 0 512 511.998" viewBox="0 0 512 511.998" xmlns="http://www.w3.org/2000/svg" xmlns:xlink="http://www.w3.org/1999/xlink"><linearGradient id="SVGID_1_" gradientUnits="userSpaceOnUse" x1="256" x2="256" y1="505.999" y2="5.999"><stop offset="0" stop-color="#1c85e8"/><stop offset="1" stop-color="#ff896f"/></linearGradient><g id="_x30_4_Sun"><g><circle cx="256" cy="255.999" fill="url(#SVGID_1_)" r="250"/><g fill="#fff"><path d="m256 354.698c54.424 0 98.698-44.276 98.698-98.7s-44.274-98.7-98.698-98.7-98.701 44.276-98.701 98.7 44.277 98.7 98.701 98.7zm0-189.065c49.827 0 90.365 40.539 90.365 90.366s-40.538 90.366-90.365 90.366-90.368-40.539-90.368-90.366 40.541-90.366 90.368-90.366z"/><path d="m256 140.083c2.301 0 4.167-1.865 4.167-4.167v-46.584c0-2.301-1.865-4.167-4.167-4.167-2.301 0-4.167 1.865-4.167 4.167v46.584c0 2.301 1.866 4.167 4.167 4.167z"/><path d="m260.167 422.666v-46.584c0-2.301-1.865-4.167-4.167-4.167-2.301 0-4.167 1.865-4.167 4.167v46.584c0 2.301 1.865 4.167 4.167 4.167 2.301-.001 4.167-1.866 4.167-4.167z"/><path d="m343.858 174.033 32.936-32.939c1.628-1.628 1.628-4.266 0-5.892-1.628-1.628-4.264-1.628-5.892 0l-32.936 32.939c-1.628 1.628-1.628 4.266 0 5.892 1.628 1.628 4.264 1.627 5.892 0z"/><path d="m168.142 337.965-32.939 32.939c-1.628 1.628-1.628 4.264 0 5.892s4.264 1.628 5.892 0l32.939-32.939c1.628-1.628 1.628-4.264 0-5.892s-4.264-1.628-5.892 0z"/><path d="m371.915 255.999c0 2.301 1.865 4.167 4.167 4.167h46.585c2.301 0 4.167-1.865 4.167-4.167 0-2.301-1.865-4.167-4.167-4.167h-46.585c-2.302 0-4.167 1.865-4.167 4.167z"/><path d="m89.333 260.166h46.582c2.301 0 4.167-1.865 4.167-4.167 0-2.301-1.865-4.167-4.167-4.167h-46.582c-2.301 0-4.167 1.865-4.167 4.167.001 2.301 1.866 4.167 4.167 4.167z"/><path d="m376.794 370.904-32.936-32.939c-1.628-1.628-4.264-1.628-5.892 0-1.628 1.626-1.628 4.264 0 5.892l32.936 32.939c1.628 1.628 4.264 1.628 5.892 0 1.628-1.626 1.628-4.264 0-5.892z"/><path d="m168.142 174.033c1.628 1.628 4.264 1.628 5.892 0s1.628-4.264 0-5.892l-32.939-32.939c-1.628-1.628-4.264-1.628-5.892 0s-1.628 4.264 0 5.892z"/></g></g></g><g id="Layer_1"/></svg>