<svg enable-background="new 0 0 512 511.998" viewBox="0 0 512 511.998" xmlns="http://www.w3.org/2000/svg" xmlns:xlink="http://www.w3.org/1999/xlink"><linearGradient id="SVGID_1_" gradientUnits="userSpaceOnUse" x1="256" x2="256" y1="505.999" y2="5.999"><stop offset="0" stop-color="#1c85e8"/><stop offset="1" stop-color="#ff896f"/></linearGradient><g id="_x33_5_Clear_Night"><g fill="url(#SVGID_1_)"><circle cx="256" cy="255.999" r="250"/><circle cx="256" cy="255.999" r="250"/><circle cx="256" cy="255.999" r="250"/><circle cx="256" cy="255.999" r="250"/></g><g fill="#fff"><path d="m175.696 186.797c-.677-2.083-2.441-3.574-4.613-3.893l-10.928-1.589-4.886-9.902s0 0-.003 0c-.967-1.963-2.93-3.18-5.12-3.18-2.188 0-4.15 1.217-5.12 3.184l-4.883 9.899-10.938 1.592c-2.161.316-3.926 1.803-4.603 3.883s-.127 4.323 1.445 5.859l7.907 7.705-1.868 10.889c-.368 2.158.505 4.297 2.279 5.583 1.768 1.286 4.079 1.452 6.012.433l9.772-5.14 9.772 5.14c.843.443 1.755.661 2.663.661 1.182 0 2.354-.368 3.356-1.097 1.771-1.289 2.64-3.431 2.269-5.583l-1.868-10.885 7.91-7.708c1.565-1.528 2.119-3.771 1.445-5.851zm-16.156 8.551c-1.344 1.309-1.96 3.193-1.647 5.055l1.201 7.005-6.309-3.32c-1.66-.856-3.63-.856-5.296.013l-6.292 3.311 1.201-6.992c.326-1.859-.29-3.757-1.641-5.072l-5.091-4.961 7.021-1.022c1.868-.264 3.483-1.432 4.316-3.125l3.145-6.374 3.145 6.374c.833 1.689 2.445 2.858 4.3 3.125l7.035 1.022z"/><path d="m408.443 125.501c-.677-2.083-2.441-3.574-4.613-3.893l-10.924-1.585-4.889-9.899c-.97-1.966-2.93-3.187-5.12-3.187-2.194 0-4.154 1.221-5.124 3.184l-4.889 9.902-10.931 1.589c-2.165.316-3.929 1.807-4.606 3.89-.674 2.08-.12 4.323 1.449 5.853l7.907 7.705-1.865 10.879c-.374 2.158.495 4.3 2.266 5.589 1.792 1.303 4.109 1.441 6.016.436l9.775-5.137 9.775 5.137c1.94 1.019 4.245.853 6.019-.436 1.771-1.289 2.64-3.431 2.269-5.583l-1.868-10.885 7.91-7.708c1.564-1.528 2.117-3.771 1.443-5.851zm-16.155 8.551c-3.29 3.202-.851 7.188-.443 12.064-5.876-2.899-6.661-3.965-8.952-3.965-.915 0-1.826.218-2.653.658l-6.296 3.307c.411-4.901 2.847-8.862-.443-12.064l-5.088-4.961c4.796-1.125 9.301-.029 11.335-4.144l3.145-6.374c2.589 4.279 2.915 8.827 7.448 9.499l7.034 1.019z"/><path d="m315.52 92.741c1.533-1.077 2.155-3.047 1.523-4.811-.635-1.764-2.399-2.936-4.232-2.747-19.424 1.445-38.135 8.158-54.108 19.417-48.704 34.32-60.407 101.862-26.087 150.563 21.016 29.827 54.495 45.775 88.477 45.775 21.507 0 43.213-6.387 62.087-19.688 15.977-11.26 28.594-26.621 36.488-44.421.758-1.712.283-3.721-1.165-4.912-1.452-1.188-3.519-1.27-5.042-.182-38.317 27.008-91.462 17.786-118.467-20.527-13.076-18.561-18.145-41.104-14.268-63.483 3.879-22.38 16.236-41.905 34.794-54.984zm-27.337 123.265c26.689 37.874 76.644 49.847 117.031 30.238-6.966 11.016-16.074 20.615-26.833 28.197-44.958 31.667-107.285 20.866-138.955-24.076-31.67-44.948-20.869-107.282 24.076-138.955 10.752-7.575 22.845-12.923 35.557-15.778-13.893 13.59-23.161 31.143-26.543 50.671-4.258 24.569 1.305 49.325 15.667 69.703z"/><path d="m91.975 358.297c0 2.301 1.865 4.167 4.167 4.167h97.523c2.301 0 4.167-1.865 4.167-4.167s-1.865-4.167-4.167-4.167h-97.523c-2.302.001-4.167 1.866-4.167 4.167z"/><path d="m217.053 354.131c-2.301 0-4.167 1.865-4.167 4.167s1.865 4.167 4.167 4.167h32.829c2.301 0 4.167-1.865 4.167-4.167s-1.865-4.167-4.167-4.167z"/><path d="m165.484 422.669c0-2.301-1.865-4.167-4.167-4.167h-32.829c-2.301 0-4.167 1.865-4.167 4.167 0 2.301 1.865 4.167 4.167 4.167h32.829c2.302 0 4.167-1.866 4.167-4.167z"/><path d="m237.633 422.669c0-2.301-1.865-4.167-4.167-4.167h-32.829c-2.301 0-4.167 1.865-4.167 4.167 0 2.301 1.865 4.167 4.167 4.167h32.829c2.301 0 4.167-1.866 4.167-4.167z"/><path d="m166.991 390.485c0 2.301 1.865 4.167 4.167 4.167h165.313c2.301 0 4.167-1.865 4.167-4.167s-1.865-4.167-4.167-4.167h-165.313c-2.301 0-4.167 1.865-4.167 4.167z"/><path d="m203.567 323.382c0 2.301 1.865 4.167 4.167 4.167h175.16c2.301 0 4.167-1.865 4.167-4.167 0-2.301-1.865-4.167-4.167-4.167h-175.16c-2.302 0-4.167 1.865-4.167 4.167z"/></g></g><g id="Layer_1"/></svg>