<svg enable-background="new 0 0 512 511.998" viewBox="0 0 512 511.998" xmlns="http://www.w3.org/2000/svg" xmlns:xlink="http://www.w3.org/1999/xlink"><linearGradient id="SVGID_1_" gradientUnits="userSpaceOnUse" x1="256" x2="256" y1="505.999" y2="5.999"><stop offset="0" stop-color="#1c85e8"/><stop offset="1" stop-color="#ff896f"/></linearGradient><g id="_x32_6_Drop"><g><circle cx="256" cy="255.999" fill="url(#SVGID_1_)" r="250"/><g fill="#fff"><path d="m164.512 167.825c-1.533 0-2.943.843-3.669 2.191-3.245 6.029-31.706 59.417-31.706 77.181 0 19.505 15.869 35.371 35.374 35.371s35.373-15.866 35.373-35.371c0-17.764-28.459-71.152-31.704-77.181-.726-1.348-2.135-2.191-3.668-2.191zm0 106.41c-14.91 0-27.041-12.129-27.041-27.038 0-11.647 17.09-47.061 27.041-66.27 9.951 19.206 27.039 54.619 27.039 66.27 0 14.909-12.131 27.038-27.039 27.038z"/><path d="m232.892 291.741c-1.533 0-2.943.843-3.669 2.191-1.538 2.858-37.673 70.238-37.673 91.559 0 22.796 18.545 41.341 41.341 41.341s41.341-18.545 41.341-41.341c0-21.322-36.134-88.701-37.673-91.559-.724-1.348-2.134-2.191-3.667-2.191zm0 126.758c-18.2 0-33.008-14.808-33.008-33.008 0-14.303 21.247-58.076 33.008-80.667 11.761 22.591 33.008 66.364 33.008 80.667 0 18.2-14.808 33.008-33.008 33.008z"/><path d="m321.782 87.356c-.726-1.348-2.135-2.191-3.669-2.191s-2.943.843-3.669 2.191c-2.495 4.635-61.081 113.877-61.081 147.969 0 35.703 29.046 64.749 64.749 64.749s64.749-29.046 64.749-64.749c.002-34.092-58.584-143.333-61.079-147.969zm-3.669 204.385c-31.108 0-56.416-25.309-56.416-56.416 0-27.331 43.364-112.165 56.416-137.08 13.052 24.912 56.416 109.746 56.416 137.08 0 31.107-25.307 56.416-56.416 56.416z"/></g></g></g><g id="Layer_1"/></svg>