<svg enable-background="new 0 0 512 511.998" viewBox="0 0 512 511.998" xmlns="http://www.w3.org/2000/svg" xmlns:xlink="http://www.w3.org/1999/xlink"><linearGradient id="SVGID_1_" gradientUnits="userSpaceOnUse" x1="256" x2="256" y1="505.999" y2="5.999"><stop offset="0" stop-color="#1c85e8"/><stop offset="1" stop-color="#ff896f"/></linearGradient><g id="_x30_9_Sunny_Day"><g><circle cx="256" cy="255.999" fill="url(#SVGID_1_)" r="250"/><g fill="#fff"><path d="m313.373 123.754c-2.292.225-3.968 2.262-3.743 4.552l1.25 12.798c.212 2.152 2.025 3.761 4.141 3.761.137 0 .273-.007.41-.02 2.292-.225 3.968-2.262 3.743-4.552l-1.25-12.798c-.228-2.291-2.321-3.971-4.551-3.741z"/><path d="m381.81 162.674 8.164-9.935c1.462-1.777 1.204-4.403-.573-5.864-1.784-1.46-4.408-1.203-5.866.575l-8.164 9.935c-1.462 1.777-1.204 4.403.573 5.864 1.808 1.479 4.424 1.181 5.866-.575z"/><path d="m410.271 222.792 12.799-1.25c2.292-.225 3.968-2.262 3.743-4.552s-2.308-3.952-4.551-3.742l-12.799 1.25c-2.292.225-3.968 2.262-3.743 4.552.223 2.268 2.235 3.962 4.551 3.742z"/><path d="m387.888 285.428 9.935 8.164c1.808 1.479 4.424 1.181 5.866-.575 1.462-1.777 1.204-4.403-.573-5.864l-9.935-8.164c-1.787-1.458-4.404-1.201-5.866.575-1.462 1.777-1.205 4.403.573 5.864z"/><path d="m243.256 161.164c-1.462 1.779-1.204 4.404.573 5.866l9.935 8.166c1.778 1.461 4.405 1.203 5.866-.573 1.462-1.779 1.204-4.404-.573-5.866l-9.935-8.166c-1.778-1.46-4.408-1.203-5.866.573z"/><path d="m129.672 388.265h213.984c24.541 0 44.508-19.966 44.508-44.507 0-15.264-7.783-29.342-20.524-37.495 2.425-10.405 1.398-21.403-3.294-31.503 16.214-13.766 23.71-33.762 21.754-53.783-3.379-34.536-34.222-59.884-68.757-56.509-28.24 2.762-49.927 23.581-55.386 49.526-7.996-2.739-16.519-4.195-25.295-4.195-30.42 0-57.643 17.443-70.443 44.772-30.758-9.854-61.02 17.02-54.883 48.669-15.798 7.15-26.172 22.988-26.172 40.519.002 24.54 19.967 44.506 44.508 44.506zm188.486-215.503c30.02-2.937 56.725 19.126 59.648 49.025 1.652 16.886-4.505 33.928-17.695 45.571-8.832-12.642-23.467-20.945-40.023-20.945-5.443 0-10.768.892-15.872 2.658-8.097-14.201-20.192-25.174-34.443-31.874 4.184-22.911 23.133-41.968 48.385-44.435zm-200.547 136.927c2.074-.734 3.219-2.951 2.617-5.065-7.927-27.979 20.25-52.28 46.582-40.944 1.025.443 2.188.451 3.226.029 1.035-.423 1.859-1.247 2.279-2.284 10.719-26.3 35.977-43.294 64.349-43.294 26.247 0 49.974 14.578 61.917 38.045.999 1.961 3.356 2.817 5.378 1.93 5.124-2.23 10.55-3.361 16.13-3.361 27 0 46.68 26.167 38.724 52.285-.576 1.896.264 3.936 2.008 4.878 11.725 6.336 19.01 18.54 19.01 31.849 0 19.946-16.227 36.173-36.175 36.173h-213.984c-19.945 0-36.172-16.227-36.172-36.173 0-15.267 9.69-28.959 24.111-34.068z"/></g></g></g><g id="Layer_1"/></svg>