<svg enable-background="new 0 0 512 511.998" viewBox="0 0 512 511.998" xmlns="http://www.w3.org/2000/svg" xmlns:xlink="http://www.w3.org/1999/xlink"><linearGradient id="SVGID_1_" gradientUnits="userSpaceOnUse" x1="256" x2="256" y1="505.999" y2="5.999"><stop offset="0" stop-color="#1c85e8"/><stop offset="1" stop-color="#ff896f"/></linearGradient><g id="_x34_8_Umbrella"><g><circle cx="256" cy="255.999" fill="url(#SVGID_1_)" r="250"/><g fill="#fff"><path d="m264.187 159.228c-1.414-.085-3.681-.173-4.02-.189v-12.497c0-2.301-1.865-4.167-4.167-4.167-2.301 0-4.167 1.865-4.167 4.167v12.468c-1.708.045-3.426.098-5.241.204-63.871 3.652-120.505 58.978-120.505 129.661v21.019c0 2.301 1.865 4.167 4.167 4.167h1.774c1.842 0 3.464-1.208 3.991-2.972 10.677-35.651 61.592-35.747 72.298 0 .527 1.764 2.148 2.972 3.991 2.972h3.388c1.89.069 3.497-1.257 4.037-2.617.098-.248 9.498-23.268 32.1-26.812v116.623c0 9.508-7.738 17.243-17.246 17.243s-17.243-7.734-17.243-17.243v-11.777c0-2.301-1.865-4.167-4.167-4.167s-4.167 1.865-4.167 4.167v11.777c0 14.102 11.475 25.576 25.576 25.576 14.105 0 25.579-11.475 25.579-25.576v-116.796c15.889 1.797 27.034 13.338 32.057 26.885.534 1.456 2.061 2.731 3.913 2.731h3.564c1.742 0 3.495-1.368 3.978-2.985 10.669-35.65 61.6-35.747 72.298 0 .527 1.764 2.148 2.972 3.991 2.972h1.774c2.301 0 4.167-1.865 4.167-4.167v-21.019c.002-68.19-53.026-125.149-121.72-129.648zm31.979 140.2c-17.288-30.621-59.706-31.153-78.557-2.885-2.014-51.073 8.32-93.423 31.492-129.033 5.707-.322 9.975-.264 15.596.137 23.622 36.271 33.947 79.49 31.469 131.781zm-161.745-3.856v-6.696c0-61.132 45.362-111.848 104.189-120.313-21.359 35.374-31 76.843-29.386 126.074-18.877-25.428-56.646-24.86-74.803.935zm243.155 0c-17.221-24.467-52.891-26.752-72.837-3.398 1.166-48.009-8.508-88.594-29.46-123.328 57.906 9.267 102.297 59.554 102.297 120.031z"/><path d="m135.762 107.656 7.689-7.689c1.628-1.628 1.628-4.264 0-5.892s-4.264-1.628-5.892 0l-7.689 7.689c-1.628 1.628-1.628 4.264 0 5.892s4.265 1.627 5.892 0z"/><path d="m111.452 120.185-7.689 7.689c-1.628 1.628-1.628 4.264 0 5.892s4.264 1.628 5.892 0l7.689-7.689c1.628-1.628 1.628-4.264 0-5.892-1.627-1.628-4.264-1.628-5.892 0z"/><path d="m187.979 107.656 7.689-7.689c1.628-1.628 1.628-4.264 0-5.892s-4.264-1.628-5.892 0l-7.689 7.689c-1.628 1.628-1.628 4.264 0 5.892s4.265 1.627 5.892 0z"/><path d="m161.872 133.766 7.689-7.689c1.628-1.628 1.628-4.264 0-5.892s-4.264-1.628-5.892 0l-7.689 7.689c-1.628 1.628-1.628 4.264 0 5.892s4.265 1.627 5.892 0z"/><path d="m129.87 159.873c1.628 1.628 4.264 1.628 5.892 0l7.689-7.689c1.628-1.628 1.628-4.264 0-5.892s-4.264-1.628-5.892 0l-7.689 7.689c-1.627 1.627-1.627 4.264 0 5.892z"/><path d="m240.196 107.656 7.689-7.689c1.628-1.628 1.628-4.264 0-5.892s-4.264-1.628-5.892 0l-7.689 7.689c-1.628 1.628-1.628 4.264 0 5.892s4.264 1.627 5.892 0z"/><path d="m214.086 133.766 7.692-7.689c1.628-1.624 1.628-4.264 0-5.892-1.624-1.624-4.261-1.631-5.892 0l-7.692 7.689c-1.628 1.624-1.628 4.264 0 5.892 1.631 1.631 4.268 1.624 5.892 0z"/><path d="m296.114 99.967 7.689-7.689c1.628-1.628 1.628-4.264 0-5.892s-4.264-1.628-5.892 0l-7.689 7.689c-1.628 1.628-1.628 4.264 0 5.892s4.264 1.628 5.892 0z"/><path d="m270.004 126.077 7.689-7.692c1.628-1.628 1.628-4.268 0-5.892-1.628-1.631-4.264-1.624-5.892 0l-7.689 7.692c-1.628 1.628-1.628 4.268 0 5.892 1.628 1.628 4.264 1.628 5.892 0z"/><path d="m348.331 99.967 7.689-7.689c1.628-1.628 1.628-4.264 0-5.892s-4.264-1.628-5.892 0l-7.689 7.689c-1.628 1.628-1.628 4.264 0 5.892s4.264 1.628 5.892 0z"/><path d="m322.221 126.077 7.689-7.692c1.628-1.628 1.628-4.268 0-5.892-1.631-1.631-4.268-1.624-5.892 0l-7.689 7.692c-1.628 1.628-1.628 4.268 0 5.892 1.628 1.628 4.264 1.628 5.892 0z"/><path d="m290.222 152.184c1.628 1.628 4.264 1.628 5.892 0l7.689-7.689c1.628-1.628 1.628-4.264 0-5.892s-4.264-1.628-5.892 0l-7.689 7.689c-1.628 1.627-1.628 4.264 0 5.892z"/><path d="m402.344 86.386-7.692 7.689c-1.628 1.624-1.628 4.264 0 5.892 1.631 1.631 4.268 1.624 5.892 0l7.692-7.689c1.628-1.624 1.628-4.264 0-5.892-1.624-1.624-4.261-1.631-5.892 0z"/><path d="m374.438 126.077 7.689-7.692c1.628-1.628 1.628-4.268 0-5.892-1.628-1.631-4.264-1.624-5.892 0l-7.689 7.692c-1.628 1.628-1.628 4.268 0 5.892 1.628 1.628 4.264 1.628 5.892 0z"/></g></g></g><g id="Layer_1"/></svg>