<svg enable-background="new 0 0 512 511.998" viewBox="0 0 512 511.998" xmlns="http://www.w3.org/2000/svg" xmlns:xlink="http://www.w3.org/1999/xlink"><linearGradient id="SVGID_1_" gradientUnits="userSpaceOnUse" x1="256" x2="256" y1="505.999" y2="5.999"><stop offset="0" stop-color="#1c85e8"/><stop offset="1" stop-color="#ff896f"/></linearGradient><g id="_x35_0_Wind"><g><circle cx="256" cy="255.999" fill="url(#SVGID_1_)" r="250"/><g fill="#fff"><path d="m354.347 182.195c-12.318 4.603-22.526 13.783-28.743 25.85-5.17 10.036.845 22.555 12.5 24.131 6.937.954 13.737-2.572 16.895-8.747 2.422-4.73 6.514-8.542 10.947-10.199 15.274-5.693 29.096 9.72 22.24 23.343-3.193 6.335-11.774 11.296-19.528 11.296h-80.739c-9.134 0-16.566 7.432-16.566 16.566s7.432 16.566 16.566 16.566h80.739c20.163 0 40.361-12.139 49.118-29.521 20.314-40.335-19.715-85.608-63.429-69.285zm55.986 65.534c-7.399 14.684-24.538 24.938-41.676 24.938h-80.739c-4.538 0-8.232-3.695-8.232-8.232s3.695-8.232 8.232-8.232h80.739c10.986 0 22.327-6.676 26.969-15.882 10.316-20.495-10.308-43.215-32.598-34.896-6.423 2.399-12.054 7.578-15.449 14.209-1.549 3.031-4.912 4.749-8.405 4.281-5.667-.773-8.805-6.917-6.162-12.054 5.189-10.072 14.027-18.04 24.251-21.859 36.963-13.807 69.878 24.357 53.07 57.727z"/><path d="m221.866 281c1.521.001 23.02.01 21.768.01 9.134 0 16.566-7.432 16.566-16.566 0-9.13-7.436-16.576-16.576-16.576h-21.758c-8.824 0-16.423 7.066-16.546 16.335-.117 9.112 7.245 16.797 16.546 16.797zm-.003-24.788h21.771c4.537 0 8.223 3.69 8.223 8.223 0 4.538-3.695 8.232-8.232 8.232h-21.253c-4.61-.05-8.794-3.764-8.729-8.347.065-4.681 4.001-8.108 8.22-8.108z"/><path d="m325.532 157.781c20.312-40.343-19.712-85.599-63.428-69.287-12.318 4.6-22.526 13.783-28.743 25.853-5.179 10.047.868 22.554 12.5 24.128 6.924.957 13.737-2.572 16.898-8.743 2.419-4.73 6.51-8.542 10.944-10.199 15.252-5.703 29.102 9.705 22.24 23.34-3.193 6.335-11.774 11.296-19.528 11.296h-80.739c-9.134 0-16.566 7.432-16.566 16.566s7.432 16.566 16.566 16.566h80.739c20.162-.002 40.357-12.141 49.117-29.52zm-138.089 12.952c0-4.538 3.695-8.232 8.232-8.232h80.739c10.986 0 22.327-6.676 26.969-15.882 10.315-20.484-10.321-43.229-32.598-34.893-6.426 2.399-12.057 7.578-15.446 14.209-1.553 3.031-4.912 4.736-8.408 4.277-5.713-.779-8.781-6.96-6.162-12.051 5.189-10.075 14.027-18.044 24.251-21.862 36.975-13.797 69.869 24.363 53.07 57.731-7.399 14.681-24.538 24.935-41.676 24.935h-80.739c-4.538 0-8.232-3.694-8.232-8.232z"/><path d="m167.957 170.743c0-9.13-7.436-16.576-16.576-16.576h-21.758c-8.937 0-16.424 7.153-16.546 16.335-.118 9.094 7.227 16.796 16.546 16.796 1.334.001 23.161.014 21.768.013 9.134.001 16.566-7.431 16.566-16.568zm-46.557-.125c.064-4.593 3.895-8.108 8.221-8.108h21.771c4.537 0 8.223 3.69 8.223 8.223 0 4.538-3.695 8.232-8.232 8.232h-21.285c-4.59-.066-8.764-3.764-8.698-8.347z"/><path d="m127.101 324.909c-.342 0-22.11.01-21.768.01-9.249 0-16.672 7.647-16.544 16.783.108 8.918 7.32 16.352 16.544 16.352h21.758c9.132 0 16.579-7.435 16.579-16.579 0-9.134-7.432-16.566-16.569-16.566zm0 24.802h-21.771c-4.626 0-8.667-4.028-8.155-8.956.375-4.185 4.348-7.455 8.666-7.502h21.25c4.541 0 8.236 3.695 8.236 8.236 0 4.535-3.689 8.222-8.226 8.222z"/><path d="m252.124 324.919h-80.736c-9.137 0-16.569 7.432-16.569 16.569 0 9.134 7.432 16.566 16.569 16.566h80.736c17.756 0 27.738 18.982 16.615 30.527-8.658 8.978-23.819 6.525-30.27-6.09-2.992-5.847-9.675-9.737-16.943-8.737-5.391.729-9.925 3.916-12.435 8.737-2.5 4.801-2.507 10.553-.02 15.384 17.542 34.038 60.528 37.564 83.529 13.698 32.489-33.711 4.848-86.647-40.476-86.654zm-35.645 69.141c-1.27-2.464-1.27-5.28 0-7.718 1.247-2.389 3.493-3.968 6.214-4.339 3.592-.465 6.857 1.352 8.353 4.284 9.45 18.473 31.947 20.271 43.695 8.076 15.965-16.567 3.102-44.642-22.617-44.642h-80.736c-4.541 0-8.236-3.695-8.236-8.232 0-4.538 3.695-8.232 8.236-8.232h80.736c40.397 0 60.201 45.843 34.473 72.536-19.812 20.553-55.672 16.297-70.118-11.733z"/></g></g></g><g id="Layer_1"/></svg>